<?xml version="1.0" encoding="utf-8"?>
<!-- Generator: Adobe Illustrator 16.0.0, SVG Export Plug-In . SVG Version: 6.00 Build 0)  -->
<!DOCTYPE svg PUBLIC "-//W3C//DTD SVG 1.1//EN" "http://www.w3.org/Graphics/SVG/1.1/DTD/svg11.dtd">
<svg version="1.1" id="Layer_1" xmlns="http://www.w3.org/2000/svg" xmlns:xlink="http://www.w3.org/1999/xlink" x="0px" y="0px"
   width="75.062px" height="75.062px" viewBox="0 0 75.062 75.062" enable-background="new 0 0 75.062 75.062" xml:space="preserve">
<circle fill-rule="evenodd" clip-rule="evenodd" fill="#DECF92" cx="37.531" cy="37.531" r="37.531"/>
<path fill-rule="evenodd" clip-rule="evenodd" fill="#DECF92" d="M346.575,63.046c1.892,0,3.426,1.534,3.426,3.425
  c0,1.893-1.534,3.426-3.426,3.426c-1.891,0-3.425-1.533-3.425-3.426C343.15,64.58,344.684,63.046,346.575,63.046"/>
<g>
  <g>
    <path fill-rule="evenodd" clip-rule="evenodd" fill="#FFFFFF" d="M35.482,51.434c-0.108,0.777-0.301,1.852-0.612,2.64
      c-2.153,5.456-5.398,1.313-5.261-4.856c0.017-0.746,0.048-1.437,0.069-1.995c0.05-1.261,0.048-1.33-0.986-1.3
      c-0.533,0.017-1.065,0.044-1.596,0.063c-0.435-2.515-1.467-5.088-4.504-5.571c-6.799-1.084-9.698,7.697-9.433,12.979
      c0.279,5.585,3.225,8.667,6.348,8.829c2.756,0.144,5.65-1.983,6.974-6.668c0.618,2.863,2.574,5.641,5.474,5.054
      c4.251-0.862,5.24-7.239,5.461-9.588C36.565,51.057,35.925,51.236,35.482,51.434z M18.293,53.451
      c-0.335-3.55,0.878-8.522,3.583-8.999c1.541-0.271,2.803,0.833,3.737,2.708C25.893,54.454,19.167,62.687,18.293,53.451z"/>
    <path fill-rule="evenodd" clip-rule="evenodd" fill="#FFFFFF" d="M65.142,39.378c-0.055-0.228-2.045-1.703-4.695,1.587
      c2.071,4.301-3.15,18.013-8.146,9.801c2.852-1.396,6.527-4.372,5.984-8.09c-0.505-3.457-4.503-6.488-7.321-3.133
      c-0.495,0.125-0.99,0.015-1.491,0.135c-3.983,2.877-2.882,10.455-1.058,13.906c0.162,1.256-0.478,3.49-2.001,4.026
      c-0.62,0.205-1.164-0.018-1.369-0.371c-0.188-0.32-0.309-0.887-0.383-1.604c-0.159-1.557-0.102-3.808-0.032-5.741
      c0.067-1.931,0.151-3.551,0.055-3.821c-0.335-0.945-2.338-0.737-3.793-0.619c-1.419,0.114-1.646,1.371-3.186,1.78
      c-0.091-2.938-2.129-3.584-3.944-3.185c-3.465,0.761-2.826,4.82-0.123,5.97c0.679,0.289,1.338,0.409,1.958,0.419v0.001h0
      c0.685,0.013,1.32-0.108,1.881-0.281c0-0.001,0-0.003,0-0.003c0.952-0.294,1.686-0.737,2.056-0.937
      c0.154,1.693-0.127,3.418-0.171,5.111c-0.074,2.897,0.938,6.625,4.544,6.474c2.265-0.159,4.891-2.792,5.799-5.85
      C57.734,60.726,67.6,49.819,65.142,39.378z M35.475,47.615c-2.458,0.441-1.907-1.79-0.611-1.491
      C35.491,46.27,35.475,47.615,35.475,47.615z M53.361,41.395c2.538,1.965,1.183,6.544-1.438,7.832
      C51.061,46.852,51.888,43.412,53.361,41.395z"/>
  </g>
  <path fill-rule="evenodd" clip-rule="evenodd" fill="#FFFFFF" d="M32.086,12.074c1.313-0.194,3.142-0.252,4.228-0.154
    c0.838,0.074,0.999,0.111,1.096,0.968c0.549,4.851,0.488,26.193-7.649,28.083c-3.874,0.899-6.388-6.854-7.163-9.647
    c-0.149,0.878-0.625,3.08-1.397,4.823c-0.868,1.96-1.821,2.766-2.768,2.828c-5.176,0.343-6.906-12.629-6.975-16.153
    c-0.028-1.428,0.506-2.374,1.391-3.187c0.629-0.488,1.269-0.964,1.934-1.405c1.863-1.236,1.697-0.951,1.532,0.782
    c-0.311,3.274-0.125,8.509,0.32,11.892c0.289,2.203,0.912,3.554,1.299,3.517c0.738-0.069,1.244-3.728,1.337-5.878
    c0.236-5.415-0.153-11.509,6.923-9.104c-0.674,3.515,1.882,23.229,4.781,12.293c1.338-5.05,0.482-15.708,0.071-18.59
    C30.909,12.192,31.052,12.227,32.086,12.074z"/>
  <path fill-rule="evenodd" clip-rule="evenodd" fill="#FFFFFF" d="M53.811,19.457c0.381,5.06-3.676,12.408-10.156,9.787
    c0,3.029,0.808,4.365,2.029,4.623c8.563,1.815,9.018-19.308,18.341-8.537c-0.228,0.258-2.204,1.554-4.079,3.358
    c-4.013,3.862-9.205,10.338-15.62,8.978c-5.564-1.18-6.212-8.215-5.48-12.813c0.627-3.94,2.741-9.285,6.863-10.797
    c1.127-0.414,1.355-0.318,2.273-0.033C50.639,14.85,53.56,16.122,53.811,19.457 M44.081,27.539c0-2.187,0.822-4.546,1.945-6.361
    C49.962,14.812,50.001,27.047,44.081,27.539z"/>
  <path fill="#FFFFFF" d="M42.449,27.398c-5.042-1.585-5.04-14.51-5.04-14.51l-1.191,3.891c0,0,0.249,10.607,6.231,12.114V27.398z"/>
</g>
</svg>
